<?xml version="1.0" encoding="UTF-8" standalone="no"?>
<svg width="150px" height="150px" viewBox="0 0 150 150" version="1.1" xmlns="http://www.w3.org/2000/svg" xmlns:xlink="http://www.w3.org/1999/xlink">
    <!-- Generator: Sketch 40.3 (33839) - http://www.bohemiancoding.com/sketch -->
    <title>safari-pinned-tab</title>
    <desc>Created with Sketch.</desc>
    <defs></defs>
    <g id="app-icons" stroke="none" stroke-width="1" fill="none" fill-rule="evenodd">
        <g id="safari-pinned-tab" fill="#000000">
            <path d="M92.6987323,115.024977 C92.5903321,115.024977 92.4809189,115.020614 92.372181,115.011889 C89.7158702,114.797432 87.9892344,112.072588 87.1966637,110.46735 C85.6027422,107.240429 84.9256632,103.009354 85.2896987,98.5540889 C85.6422525,94.2377676 86.9363007,90.2577308 88.933768,87.346622 C90.6398044,84.8603995 92.7139286,83.434379 94.6239329,83.434379 C94.732333,83.434379 94.8417463,83.438742 94.9508219,83.4474679 C95.5525948,83.4964674 96.15403,83.687767 96.7379051,84.0170035 L97.9873775,84.72112 L129.574377,69.1198052 C129.152596,72.3178633 127.054496,77.1392824 119.068341,80.8310275 C112.711903,83.769321 106.180539,86.6649916 102.853228,88.1296075 L100.744659,89.057578 L101.335626,91.2729607 C102.038032,93.9041681 102.279146,96.8894474 102.032966,99.904932 C101.680413,104.221253 100.386027,108.20129 98.3885594,111.112734 C96.6825231,113.598957 94.6087366,115.024977 92.69907,115.024977 L92.6987323,115.024977 Z M104.871092,68.3711193 C103.724955,66.8309903 102.411996,65.209643 101.815964,64.4820336 C100.763367,62.3643144 94.872274,51.6522126 82.5021595,49.557315 C81.6677146,49.4160219 80.7501966,49.3448719 79.7759458,49.3448719 C73.3783095,49.3448719 65.3718929,52.4358694 63.1940963,53.3282648 L57.1750163,53.2259028 L31.1174383,15.3908853 C44.4303979,5.31275681 58.4471143,0 71.7877649,0 C84.8417122,0 96.5627763,5.01808843 105.683925,14.5119144 C114.897602,24.1023969 120.82314,37.6480809 122.865859,53.7548292 L104.871092,68.3711193 Z M48.9028674,135.503289 C46.8878399,135.01967 34.9199205,132.74287 29.8582065,131.78503 L28.4020646,126.030271 C26.7696458,118.359496 25.1257454,106.796279 26.5329215,95.1756723 C28.1839135,81.5403795 33.6282362,71.401505 42.7186544,65.0298886 L43.1802838,64.9275266 L43.5064974,64.4929075 C44.8387052,63.610916 46.2600645,62.7967184 47.7391696,62.0687734 C48.0018965,61.962384 48.2788066,61.8546522 48.5759784,61.7425574 L71.7722646,62.3812293 C75.1417878,64.851678 78.3617119,68.7119009 80.8772038,73.2685212 L75.4575328,76.1823149 C65.4077224,81.430634 59.4784693,97.1128316 61.9878827,111.869744 C62.9715889,117.656722 65.1581656,122.556003 68.2595587,126.031278 C66.8837883,126.956899 65.4418296,127.89326 63.905654,128.858819 C55.267072,134.290383 49.9689713,135.46805 48.9028674,135.503289 Z M107.428357,95.1139865 C107.351025,94.1054689 107.226078,93.1140675 107.055542,92.1505221 C110.660776,90.555017 116.064575,88.1419581 121.347142,85.7000365 C122.003622,85.3966422 122.638826,85.0804946 123.252419,84.7519293 C121.771625,87.1639813 119.09978,89.7237031 114.388932,91.9018327 C111.83528,93.0821843 109.489649,94.1645368 107.428357,95.1139865 Z M106.975103,103.69575 C107.133819,102.834567 107.259442,101.957609 107.350957,101.067563 C109.814107,99.9341974 112.85539,98.5326768 116.283672,96.9485825 C114.707648,99.1142944 112.126306,101.31491 107.986838,103.228241 C107.644415,103.38665 107.307057,103.542375 106.975103,103.69575 Z M51.6637962,56.4555421 C51.945434,56.2894136 52.2307865,56.1289905 52.520529,55.9746084 L52.8747713,56.4891034 L51.6637962,56.4555421 Z M53.1746447,150 C49.6227661,150 34.648346,146.485123 32.3408744,145.122533 C31.413901,144.166036 29.0196417,139.90744 27.4865053,136.802347 C34.8580547,138.194806 46.5703388,140.437038 47.6263119,140.71996 C47.9893343,140.822993 48.3938932,140.874006 48.8555226,140.874006 C51.8654002,140.87367 58.5794571,138.561631 66.7942315,133.39688 C69.4562831,131.723512 71.849867,130.131699 74.1110744,128.531495 L77.1081196,126.41042 L74.1745611,124.203428 C70.8148311,121.67626 68.3148732,116.854841 67.3152953,110.974898 C65.243535,98.7904612 70.1364014,85.0269643 77.9992974,80.9204013 L88.0207414,75.5338096 L86.9232319,73.2331811 C85.0544264,69.3152327 80.9149581,62.0622961 74.1887443,57.501984 L73.5339532,57.0579678 L68.938934,56.9314416 C72.0301963,55.8923832 76.3013657,54.7147165 79.7759121,54.7147165 C80.4472502,54.7147165 81.059154,54.7603599 81.5947386,54.8513111 C81.9736327,54.9150776 82.3761654,54.9996521 82.8560304,55.1167811 C86.7614758,56.3713032 89.9064316,58.2014019 92.4675124,60.7094393 C93.624794,61.8773732 94.6817801,63.1721689 95.6087535,64.5575801 C96.1453513,65.3758051 96.6529072,66.2514199 97.1037303,67.1394524 L97.315803,67.5572908 L97.5396949,67.7677203 C98.7614763,69.259521 100.897061,71.9491251 101.728804,73.2711054 C102.260337,74.1839733 102.758099,75.143827 103.217365,76.1412694 L98.0357692,78.7006556 C97.1773479,78.3714191 96.2915733,78.1683731 95.3885762,78.095545 C95.1349671,78.0750726 94.8776433,78.0646686 94.6240342,78.0646686 C87.1660347,78.0646686 80.8379636,86.6862359 79.9042362,98.1195705 C78.9364017,109.966716 84.2540887,119.738094 92.0112861,120.364013 C92.2642198,120.38415 92.5212059,120.394889 92.774815,120.394889 C95.7269468,120.394889 98.545689,119.057135 100.937922,116.633337 C99.5766726,118.721857 98.0232745,120.524771 96.3155497,121.974956 L95.7904336,122.42065 L95.5449291,123.062007 C92.5107374,130.990198 90.280598,132.945144 89.4627001,133.417352 C76.5600403,140.867965 55.6577178,149.571422 53.2708878,149.998322 C53.2418461,150 53.2101027,150 53.1746447,150 Z" id="Combined-Shape"></path>
        </g>
    </g>
</svg>