<?xml version="1.0" standalone="no"?>
<!DOCTYPE svg PUBLIC "-//W3C//DTD SVG 20010904//EN"
 "http://www.w3.org/TR/2001/REC-SVG-20010904/DTD/svg10.dtd">
<svg version="1.0" xmlns="http://www.w3.org/2000/svg"
 width="470.000000pt" height="470.000000pt" viewBox="0 0 470.000000 470.000000"
 preserveAspectRatio="xMidYMid meet">
<metadata>
Created by potrace 1.11, written by Peter Selinger 2001-2013
</metadata>
<g transform="translate(0.000000,470.000000) scale(0.100000,-0.100000)"
fill="#000000" stroke="none">
<path d="M2148 4255 c-2 -1 -50 -5 -106 -9 -57 -3 -107 -8 -112 -11 -4 -2 -23
-6 -42 -9 -163 -20 -457 -144 -668 -280 -96 -62 -100 -67 -89 -88 14 -26 81
-130 89 -138 3 -3 10 -13 15 -22 33 -57 201 -314 207 -316 4 -2 8 -8 8 -13 0
-4 18 -34 39 -66 22 -32 82 -125 135 -207 88 -137 94 -150 78 -162 -9 -7 -21
-14 -25 -14 -18 0 -127 -92 -168 -142 -24 -28 -59 -66 -78 -82 -170 -153 -226
-221 -294 -361 -39 -78 -80 -189 -92 -248 -2 -10 -6 -26 -9 -35 -3 -9 -8 -35
-11 -57 -3 -23 -7 -52 -10 -65 -30 -158 -21 -480 22 -715 14 -80 10 -138 -15
-214 l-25 -78 40 -79 c89 -177 115 -223 140 -248 30 -30 144 -69 298 -102 11
-2 57 -12 102 -22 173 -39 203 -34 463 78 316 135 651 308 696 359 13 14 49
77 81 139 32 62 77 133 100 158 72 79 130 178 178 307 17 44 23 50 95 86 43
21 93 53 113 70 41 38 92 130 102 186 4 22 9 49 11 61 2 11 22 40 45 65 58 62
95 149 102 238 1 13 17 42 37 65 60 69 74 99 96 201 6 26 8 134 3 139 -2 2
-29 -8 -59 -23 -30 -15 -125 -58 -210 -95 -213 -95 -302 -135 -322 -147 -10
-5 -22 -9 -26 -9 -8 0 -45 81 -39 86 1 1 81 36 177 79 96 43 200 88 230 102
30 13 69 31 87 38 28 12 31 18 27 47 -2 18 -6 56 -9 83 -3 28 -8 61 -11 75 -3
14 -10 44 -14 67 -38 182 -98 355 -180 520 -37 77 -75 145 -84 152 -9 8 -16
17 -16 22 0 9 -47 80 -58 89 -4 3 -20 23 -37 45 -98 133 -276 279 -440 360
-156 77 -285 115 -445 130 -36 4 -77 8 -92 10 -15 1 -29 1 -30 0z"/>
<path d="M2975 1019 c-18 -7 -19 -8 -1 -8 15 -1 17 -7 14 -36 -2 -19 0 -35 4
-35 4 0 8 15 8 34 0 25 5 36 18 38 15 3 14 5 -3 9 -11 3 -29 2 -40 -2z"/>
<path d="M3099 993 l-13 -38 -9 33 c-6 17 -13 32 -17 32 -11 0 -18 -58 -8 -72
5 -9 8 -5 9 12 l0 25 11 -22 c13 -26 28 -30 28 -8 0 8 5 15 11 15 5 0 8 -4 4
-9 -3 -5 -1 -12 5 -16 6 -4 10 5 10 20 0 18 -4 24 -12 19 -9 -5 -8 -2 1 10 10
12 11 20 4 27 -8 8 -15 -1 -24 -28z"/>
</g>
</svg>
