<?xml version="1.0" encoding="utf-8"?>
<!-- Generator: Adobe Illustrator 19.0.0, SVG Export Plug-In . SVG Version: 6.00 Build 0)  -->
<svg version="1.1" id="icon" xmlns="http://www.w3.org/2000/svg" xmlns:xlink="http://www.w3.org/1999/xlink" x="0px" y="0px"
	 viewBox="-345 520.5 150 150" style="enable-background:new -345 520.5 150 150;" xml:space="preserve">
<style type="text/css">
	.st0{fill:#010011;}
	.st1{fill:#42B9E0;}
	.st2{fill:#FFFFFF;}
	.st3{fill:#1987BD;}
	.st4{fill:#FFFAFF;}
</style>
<path id="XMLID_299_" class="st0" d="M-324.2,641.6v-21.8l1.2-15.3l11.4-18.6l11.8-6.6c0,0,10.6-2.1,10.9-2.1
	c0.3,0,23.1,2.4,23.1,2.4l10.5,6.2l1.9,3.5l6.8,13.3c0,0-13.8-0.1-13.9,0.2c-0.1,0.3-6.2,5.1-6.3,5.5c-0.1,0.3-2.2,7-2.2,7.3
	s1,8.5,1,8.5l2.3,4l-32,10.5c0,0-12.2,4.5-12.5,4.5S-324.2,641.6-324.2,641.6z"/>
<circle id="XMLID_298_" class="st1" cx="-253.3" cy="617.3" r="8.5"/>
<circle id="XMLID_297_" class="st1" cx="-253.3" cy="617.3" r="8.5"/>
<polygon id="XMLID_296_" class="st2" points="-314.3,644.2 -314.3,661.7 -326.7,660.3 -326,642.8 -315,642.1 "/>
<polygon id="XMLID_295_" class="st1" points="-307.7,643.3 -307.7,661.7 -303.6,660.1 -258,646.1 -253.1,640.1 -252.4,633.8 
	-259.8,632 -265.8,626.6 "/>
<polygon id="XMLID_294_" class="st2" points="-295.6,638.8 -295.6,658.3 -291.2,656.5 -291.2,636.6 "/>
<polygon id="XMLID_293_" class="st2" points="-287.9,636.6 -287.9,656.1 -286.8,654.3 -286.8,634.4 "/>
<polygon id="XMLID_292_" class="st2" points="-315.4,642.9 -315.4,661.7 -305.5,661.4 -305.5,641.7 "/>
<path id="XMLID_286_" class="st3" d="M-230,588.2c-1.6-1.7-4.2-1.8-5.9-0.2l-10.7,9.9c-1.8-5.6-9.9-23-39.4-22.9
	c-5.1,0-9.7,1.1-13.9,2.5c-0.3-0.8-0.7-1.7-1-2.5c-0.4,0.8-1,1.4-1.5,2.2c-0.2,0.5-0.6,0.7-1,0.9c0.1,0.2,0.2,0.5,0.3,0.7
	c-4.9,2.2-9,5.2-12.4,9.2c-9.3,11.1-12.7,28.7-10.1,52.8h-2.7v22.7l21.4,1.1c42.3-15.3,58.1-15.8,56.5-29.7
	c8.6-1.2,14.9-8.6,14.9-17.6c0-0.2,0-0.3,0-0.5l2.6-2.4c1.7-1.5,1.8-4.2,0.2-5.9c-0.6-0.7-1.4-1.1-2.3-1.3l3.6-3.3
	c1.7-1.6,1.8-4.2,0.2-5.9c-0.6-0.7-1.4-1.1-2.2-1.2l3-2.8C-228.6,592.5-228.5,589.8-230,588.2z M-312.9,590
	c6.2-7.3,15.3-11.9,27.1-11.9c28.4,0.1,34.8,17.2,36,21.6c-1.1-0.2-2.3-0.3-3.4-0.3c-9.8,0-17.8,8-17.8,17.8c0,3.2,0.8,6.2,2.3,8.8
	l-37.9,15.3l0,0l-15.6-0.5C-324.8,617.6-321.6,600.4-312.9,590z M-266.6,625.2L-266.6,625.2C-266.6,625.1-266.6,625.1-266.6,625.2z
	 M-306.7,660.7l-18-0.6v-15.9l18,0.7c0,0,33.6-13.8,39.8-16.2c3.1,3.7,7.8,6.1,12.9,6.3C-254.4,644.7-261.8,645.9-306.7,660.7z
	 M-253.3,631.3c-7.8,0-14.1-6.3-14.1-14.1c0-7.8,6.3-14.1,14.1-14.1c7.8,0,14.1,6.3,14.1,14.1C-239.2,625-245.5,631.3-253.3,631.3z"
	/>
<path id="XMLID_283_" class="st3" d="M-206.5,611.7L-206.5,611.7c-0.4-2.2-1.9-4-3.8-4.9c1.3-78.4-62.3-92-98.8-73.1l6.7,24.9
	c0.7-0.2,1.5-0.2,2.3-0.3c0.4-0.1,0.7-0.1,1.1-0.2l-5.8-22.1c24.1-12.5,91.3-11.1,91.1,70.1c-0.3,0-0.7,0-1,0.1
	c-1.8,0.4-3.4,1.4-4.4,2.9c-1,1.5-1.4,3.4-1.1,5.2c0.4,1.8,1.4,3.4,2.9,4.4c1.4,1,3.1,1.4,4.8,1.1c0.1,0,0.3,0,0.5-0.1
	C-208.3,619.1-205.7,615.4-206.5,611.7z M-212.6,617.3c-1.2,0.2-2.3,0-3.3-0.7c-1-0.7-1.6-1.7-1.9-2.8c-0.2-1.2,0-2.3,0.7-3.3
	c0.7-1,1.7-1.6,2.8-1.9c0.1,0,0.2,0,0.3,0c2.3-0.3,4.5,1.2,4.9,3.6C-208.6,614.5-210.2,616.9-212.6,617.3z"/>
<path id="XMLID_282_" class="st4" d="M-317.1,632.5c0,0,2.2-42.6,42.1-49.1C-274.3,583.3-323.2,577.6-317.1,632.5z"/>
<path id="XMLID_281_" class="st3" d="M-271.8,561.3c0.2-1.4,1.2-2.7,2.5-3.4c-23.5-10.3-41.5,3.6-41.5,3.6l7.5,17.6l3.8-1.8l-6-14.3
	C-291,555.2-277.9,558.8-271.8,561.3z"/>
<circle id="XMLID_280_" class="st1" cx="-265.8" cy="562.3" r="2.3"/>
<circle id="XMLID_279_" class="st1" cx="-213.4" cy="613" r="2.3"/>
<path id="XMLID_276_" class="st3" d="M-258.9,562.2c0-1.9-0.8-3.6-2.1-4.9c-1.3-1.3-3.1-2-4.9-2c-1.8,0-3.5,0.7-4.8,2
	c-0.1-0.1-0.3-0.1-0.4-0.2c-0.6,1-1.1,2-1.6,3c0.1,0,0.2,0.1,0.3,0.1c-0.2,0.7-0.3,1.4-0.3,2.1c0,1.9,0.8,3.6,2.1,4.9
	c1.2,1.2,2.8,1.9,4.5,2c0.1,0,0.3,0,0.4,0c1.9,0,3.6-0.8,4.9-2.1C-259.6,565.8-258.9,564.1-258.9,562.2z M-261.2,562.3
	c-0.1,1.2-0.5,2.3-1.4,3.1c-0.8,0.8-2,1.3-3.2,1.3c-1.2,0-2.3-0.4-3.2-1.3s-1.3-1.9-1.4-3.1c0-1.2,0.4-2.3,1.3-3.2
	c0.8-0.8,1.9-1.3,3.1-1.3c0.1,0,0.2,0,0.3,0c1.1,0.1,2.2,0.5,3,1.3C-261.8,560-261.2,561.1-261.2,562.3L-261.2,562.3z"/>
<path id="XMLID_275_" class="st3" d="M-325.3,639c-0.1,0.1-2.8,1.8-2.8,1.8l3.3,0.3L-325.3,639z"/>
</svg>
